<svg viewBox="333 53 424 245" width="424" xmlns="http://www.w3.org/2000/svg">
<defs><filter id="shadow" x="-10%" y="-10%">
  <feGaussianBlur in="SourceGraphic" stdDeviation="1" />
</filter></defs><g transform="translate(0.5,0.5)" stroke-width="0.75">
<rect width="100" height="60" x="652" y="222" stroke="none" fill="lightgray" style="filter:url(#shadow);"/>
<rect width="100" height="60" x="650" y="220" stroke="black" fill="white"/>
<text x="700" y="255" font-size="11.75px" font-family="Arial, Helvetica, sans-serif" font-weight="bold" font-style="normal" text-anchor="middle">Group</text>
<rect width="108" height="75" x="502" y="192" stroke="none" fill="lightgray" style="filter:url(#shadow);"/>
<rect width="108" height="75" x="500" y="190" stroke="black" fill="white"/>
<text x="554" y="209" font-size="11.75px" font-family="Arial, Helvetica, sans-serif" font-weight="bold" font-style="italic" text-anchor="middle">AbstractFigure</text>
<line x1="500" y1="219" x2="608" y2="219" stroke="black"/>
<text x="507" y="237" font-size="11.75px" font-family="Arial, Helvetica, sans-serif" font-weight="normal" font-style="normal" text-anchor="start">x: int</text>
<text x="507" y="253" font-size="11.75px" font-family="Arial, Helvetica, sans-serif" font-weight="normal" font-style="normal" text-anchor="start">y: int</text>
<rect width="121" height="121" x="342" y="172" stroke="none" fill="lightgray" style="filter:url(#shadow);"/>
<rect width="121" height="121" x="340" y="170" stroke="black" fill="white"/>
<text x="400" y="189" font-size="11.75px" font-family="Arial, Helvetica, sans-serif" font-weight="bold" font-style="normal" text-anchor="middle">Rectangle</text>
<line x1="340" y1="199" x2="461" y2="199" stroke="black"/>
<text x="347" y="217" font-size="11.75px" font-family="Arial, Helvetica, sans-serif" font-weight="normal" font-style="normal" text-anchor="start">width:int</text>
<text x="347" y="233" font-size="11.75px" font-family="Arial, Helvetica, sans-serif" font-weight="normal" font-style="normal" text-anchor="start">height:int</text>
<line x1="340" y1="245" x2="461" y2="245" stroke="black"/>
<text x="347" y="263" font-size="11.75px" font-family="Arial, Helvetica, sans-serif" font-weight="normal" font-style="normal" text-anchor="start">main(String[]):void</text>
<line x1="347" y1="265" x2="444" y2="265" stroke="black"/>
<text x="347" y="279" font-size="11.75px" font-family="Arial, Helvetica, sans-serif" font-weight="normal" font-style="normal" text-anchor="start">draw():void</text>
<rect width="100" height="73" x="582" y="62" stroke="none" fill="lightgray" style="filter:url(#shadow);"/>
<rect width="100" height="73" x="580" y="60" stroke="black" fill="white"/>
<text x="630" y="79" font-size="11.75px" font-family="Arial, Helvetica, sans-serif" font-weight="bold" font-style="normal" text-anchor="middle">«interface»</text>
<text x="630" y="95" font-size="11.75px" font-family="Arial, Helvetica, sans-serif" font-weight="bold" font-style="normal" text-anchor="middle">Figure</text>
<line x1="580" y1="104" x2="680" y2="104" stroke="black"/>
<text x="587" y="122" font-size="11.75px" font-family="Arial, Helvetica, sans-serif" font-weight="normal" font-style="normal" text-anchor="start">draw():void</text>
<path d="M 700 220 L 700 161 L 630 161 L 630 133" stroke="black" fill="none" stroke-dasharray="3.0 3.0"/>
<path d="M 630 133 L 625 142 L 635 142 L 630 133" stroke="black" fill="white"/>
<path d="M 710 220 L 710 151 L 640 151 L 640 133" stroke="black" fill="none"/>
<path d="M 710 220 L 715 211 L 710 202 L 705 211 L 710 220" stroke="black" fill="white"/>
<text x="675" y="144" font-size="11.75px" font-family="Arial, Helvetica, sans-serif" font-weight="normal" font-style="normal" text-anchor="middle">elements</text>
<path d="M 461 230 L 481 230 L 481 230 L 500 230" stroke="black" fill="none"/>
<path d="M 500 230 L 491 225 L 491 235 L 500 230" stroke="black" fill="white"/>
<path d="M 550 190 L 550 161 L 630 161 L 630 133" stroke="black" fill="none" stroke-dasharray="3.0 3.0"/>
<path d="M 630 133 L 625 142 L 635 142 L 630 133" stroke="black" fill="white"/>
</g></svg>