<svg viewBox="283 113 274 204" width="274" xmlns="http://www.w3.org/2000/svg">
<defs><filter id="shadow" x="-10%" y="-10%">
  <feGaussianBlur in="SourceGraphic" stdDeviation="1" />
</filter></defs><g transform="translate(0.5,0.5)" stroke-width="0.75">
<rect width="100" height="60" x="452" y="252" stroke="none" fill="lightgray" style="filter:url(#shadow);"/>
<rect width="100" height="60" x="450" y="250" stroke="black" fill="white"/>
<text x="500" y="285" font-size="11.75px" font-family="Arial, Helvetica, sans-serif" font-weight="bold" font-style="normal" text-anchor="middle">Group</text>
<rect width="100" height="73" x="372" y="122" stroke="none" fill="lightgray" style="filter:url(#shadow);"/>
<rect width="100" height="73" x="370" y="120" stroke="black" fill="white"/>
<text x="420" y="139" font-size="11.75px" font-family="Arial, Helvetica, sans-serif" font-weight="bold" font-style="normal" text-anchor="middle">«interface»</text>
<text x="420" y="155" font-size="11.75px" font-family="Arial, Helvetica, sans-serif" font-weight="bold" font-style="normal" text-anchor="middle">Figure</text>
<line x1="370" y1="164" x2="470" y2="164" stroke="black"/>
<text x="377" y="182" font-size="11.75px" font-family="Arial, Helvetica, sans-serif" font-weight="normal" font-style="normal" text-anchor="start">draw():void</text>
<rect width="100" height="60" x="292" y="252" stroke="none" fill="lightgray" style="filter:url(#shadow);"/>
<rect width="100" height="60" x="290" y="250" stroke="black" fill="white"/>
<text x="340" y="285" font-size="11.75px" font-family="Arial, Helvetica, sans-serif" font-weight="bold" font-style="normal" text-anchor="middle">Rectangle</text>
<path d="M 340 250 L 340 221 L 420 221 L 420 193" stroke="black" fill="none" stroke-dasharray="3.0 3.0"/>
<path d="M 420 193 L 415 202 L 425 202 L 420 193" stroke="black" fill="white"/>
<path d="M 500 250 L 500 221 L 420 221 L 420 193" stroke="black" fill="none" stroke-dasharray="3.0 3.0"/>
<path d="M 420 193 L 415 202 L 425 202 L 420 193" stroke="black" fill="white"/>
<path d="M 510 250 L 510 211 L 430 211 L 430 193" stroke="black" fill="none"/>
<path d="M 510 250 L 515 241 L 510 232 L 505 241 L 510 250" stroke="black" fill="white"/>
<text x="470" y="204" font-size="11.75px" font-family="Arial, Helvetica, sans-serif" font-weight="normal" font-style="normal" text-anchor="middle">elements</text>
</g></svg>